<svg width="15" height="24" viewBox="0 0 15 24" fill="none" xmlns="http://www.w3.org/2000/svg">
<path fill-rule="evenodd" clip-rule="evenodd" d="M6.46689 19.2547C7.10088 19.5443 7.78372 19.7011 8.49498 19.6989C11.8087 19.6887 14.4843 16.2322 14.4712 11.9785C14.4581 7.72489 11.7612 4.28491 8.44753 4.29512C7.73627 4.29731 7.05441 4.45827 6.42223 4.75182L3.05677 1.40703C2.46918 0.823054 1.51944 0.82598 0.935459 1.41357C0.351479 2.00116 0.354405 2.9509 0.941994 3.53488L4.11656 6.68995C3.34639 7.73114 2.80123 9.04897 2.58038 10.5151L2.46666 10.5155L2.47128 12.0155L2.4759 13.5155L2.58962 13.5151C2.8195 14.9799 3.37276 16.2944 4.14934 17.3308L0.994273 20.5054C0.410295 21.0929 0.413221 22.0427 1.00081 22.6267C1.5884 23.2107 2.53814 23.2077 3.12212 22.6201L6.46689 19.2547ZM6.46689 19.2547L12.6386 13.0448C13.2226 12.4572 13.2197 11.5075 12.6321 10.9235L6.42223 4.75182C5.538 5.16239 4.75095 5.83233 4.11656 6.68995L7.94876 10.4986L2.58038 10.5151C2.50727 11.0006 2.4697 11.5022 2.47128 12.0155C2.47286 12.5288 2.51352 13.0302 2.58962 13.5151L7.958 13.4986L4.14934 17.3308C4.78899 18.1845 5.58015 18.8496 6.46689 19.2547Z" fill="#00D084"/>
</svg>
